<?xml version="1.0" encoding="UTF-8" standalone="no"?>
<svg
   xmlns:dc="http://purl.org/dc/elements/1.1/"
   xmlns:cc="http://creativecommons.org/ns#"
   xmlns:rdf="http://www.w3.org/1999/02/22-rdf-syntax-ns#"
   xmlns:svg="http://www.w3.org/2000/svg"
   xmlns="http://www.w3.org/2000/svg"
   xmlns:sodipodi="http://sodipodi.sourceforge.net/DTD/sodipodi-0.dtd"
   xmlns:inkscape="http://www.inkscape.org/namespaces/inkscape"
   sodipodi:docname="spriteset.svg"
   inkscape:version="1.0 (4035a4fb49, 2020-05-01)"
   id="svg473"
   version="1.1"
   viewBox="0 0 52.916665 10.583334"
   height="40"
   width="200">
  <defs
     id="defs467" />
  <sodipodi:namedview
     inkscape:window-maximized="1"
     inkscape:window-y="-8"
     inkscape:window-x="-8"
     inkscape:window-height="705"
     inkscape:window-width="1366"
     units="px"
     showgrid="false"
     inkscape:document-rotation="0"
     inkscape:current-layer="layer1"
     inkscape:document-units="px"
     inkscape:cy="2.8571428"
     inkscape:cx="39.117647"
     inkscape:zoom="2.8"
     inkscape:pageshadow="2"
     inkscape:pageopacity="0.0"
     borderopacity="1.0"
     bordercolor="#666666"
     pagecolor="#ffffff"
     id="base" />
  <metadata
     id="metadata470">
    <rdf:RDF>
      <cc:Work
         rdf:about="">
        <dc:format>image/svg+xml</dc:format>
        <dc:type
           rdf:resource="http://purl.org/dc/dcmitype/StillImage" />
        <dc:title></dc:title>
      </cc:Work>
    </rdf:RDF>
  </metadata>
  <g
     id="layer1"
     inkscape:groupmode="layer"
     inkscape:label="Layer 1">
    <g
       transform="matrix(0.26458333,0,0,0.26458333,27.781245,7.4999995e-8)"
       id="g615"
       style="fill:none">
      <g
         opacity="0.5"
         id="g597">
        <rect
           ry="1.25"
           x="16.746"
           y="10.75"
           width="10.9495"
           height="19.913099"
           rx="1.25"
           stroke="#48494d"
           stroke-width="1.5"
           id="rect584" />
        <mask
           id="path-2-inside-1"
           fill="#ffffff">
          <rect
             x="18.0968"
             y="13.0968"
             width="8.2582998"
             height="7.2260098"
             rx="1"
             id="rect586" />
        </mask>
        <rect
           ry="1"
           x="18.0968"
           y="13.0968"
           width="8.2582998"
           height="7.2260098"
           rx="1"
           stroke="#48494d"
           stroke-width="3"
           mask="url(#path-2-inside-1)"
           id="rect589" />
        <path
           d="m 27.9474,20.834 v 0 c 1.1831,0 2.1422,0.9591 2.1422,2.1423 v 2.6632 c 0,1.3455 0.5356,3.4903 2.4993,3.2677 1.9638,-0.2226 2.3208,-2.2253 2.3208,-3.6522 0,-1.4268 -0.7141,-4.6132 -0.5356,-7.3043 0.1786,-2.691 1.7852,-4.9977 3.0349,-5.9588"
           stroke="#48494d"
           stroke-width="1.5"
           stroke-linecap="round"
           stroke-linejoin="round"
           id="path591" />
        <rect
           ry="0.49797899"
           x="15.498"
           y="30.506001"
           width="13.4454"
           height="0.99595898"
           rx="0.49797899"
           fill="#48494d"
           stroke="#48494d"
           stroke-width="0.995959"
           id="rect593" />
        <path
           d="m 35.4182,15.4778 v 0 c 0.9145,0.2237 1.5258,1.0854 1.4345,2.0225 l -0.085,0.8733 c -0.0876,0.8997 -0.8439,1.586 -1.7479,1.586 v 0"
           stroke="#48494d"
           stroke-width="1.5"
           id="path595" />
      </g>
    </g>
    <g
       transform="matrix(0.26458334,0,0,0.26458334,-2.0526534,0.42145478)"
       id="g703"
       style="fill:none">
      <g
         opacity="0.5"
         id="g679">
        <path
           d="M 11.1943,20 H 28.8057"
           stroke="#48494d"
           stroke-width="1.5"
           id="path653" />
        <path
           d="M 11.1943,20 H 28.8057"
           stroke="#48494d"
           stroke-width="1.5"
           stroke-miterlimit="10"
           stroke-linecap="round"
           stroke-linejoin="round"
           id="path655" />
        <path
           d="m 20,14.5297 v 10.941"
           stroke="#48494d"
           stroke-width="1.5"
           id="path657" />
        <path
           d="m 20,14.5297 v 10.941"
           stroke="#48494d"
           stroke-width="1.5"
           stroke-miterlimit="10"
           stroke-linecap="round"
           stroke-linejoin="round"
           id="path659" />
        <path
           d="m 28.8058,14.5297 v 5.4706"
           stroke="#48494d"
           stroke-width="1.5"
           id="path661" />
        <path
           d="m 28.8058,14.5297 v 5.4706"
           stroke="#48494d"
           stroke-width="1.5"
           stroke-miterlimit="10"
           stroke-linecap="round"
           stroke-linejoin="round"
           id="path663" />
        <path
           d="M 11.1943,14.5297 V 25.4713"
           stroke="#48494d"
           stroke-width="1.5"
           id="path665" />
        <path
           d="M 11.1943,14.5297 V 25.4713"
           stroke="#48494d"
           stroke-width="1.5"
           stroke-miterlimit="10"
           stroke-linecap="round"
           stroke-linejoin="round"
           id="path667" />
        <path
           d="m 11.1943,14.5295 c 1.4835,0 2.6862,-1.2026 2.6862,-2.6862 0,-1.4835 -1.2027,-2.6862 -2.6862,-2.6862 -1.48359,0 -2.68624,1.2027 -2.68624,2.6862 0,1.4836 1.20265,2.6862 2.68624,2.6862 z"
           stroke="#48494d"
           stroke-width="1.5"
           stroke-miterlimit="10"
           stroke-linecap="round"
           stroke-linejoin="round"
           id="path669" />
        <path
           d="m 19.9998,14.5295 c 1.4835,0 2.6862,-1.2026 2.6862,-2.6862 0,-1.4835 -1.2027,-2.6862 -2.6862,-2.6862 -1.4835,0 -2.6862,1.2027 -2.6862,2.6862 0,1.4836 1.2027,2.6862 2.6862,2.6862 z"
           stroke="#48494d"
           stroke-width="1.5"
           stroke-miterlimit="10"
           stroke-linecap="round"
           stroke-linejoin="round"
           id="path671" />
        <path
           d="m 28.8061,14.5295 c 1.4835,0 2.6862,-1.2026 2.6862,-2.6862 0,-1.4835 -1.2027,-2.6862 -2.6862,-2.6862 -1.4836,0 -2.6862,1.2027 -2.6862,2.6862 0,1.4836 1.2026,2.6862 2.6862,2.6862 z"
           stroke="#48494d"
           stroke-width="1.5"
           stroke-miterlimit="10"
           stroke-linecap="round"
           stroke-linejoin="round"
           id="path673" />
        <path
           d="m 11.1943,30.8429 c 1.4835,0 2.6862,-1.2027 2.6862,-2.6862 0,-1.4836 -1.2027,-2.6862 -2.6862,-2.6862 -1.48359,0 -2.68624,1.2026 -2.68624,2.6862 0,1.4835 1.20265,2.6862 2.68624,2.6862 z"
           stroke="#48494d"
           stroke-width="1.5"
           stroke-miterlimit="10"
           stroke-linecap="round"
           stroke-linejoin="round"
           id="path675" />
        <path
           d="m 19.9998,30.8429 c 1.4835,0 2.6862,-1.2027 2.6862,-2.6862 0,-1.4836 -1.2027,-2.6862 -2.6862,-2.6862 -1.4835,0 -2.6862,1.2026 -2.6862,2.6862 0,1.4835 1.2027,2.6862 2.6862,2.6862 z"
           stroke="#48494d"
           stroke-width="1.5"
           stroke-miterlimit="10"
           stroke-linecap="round"
           stroke-linejoin="round"
           id="path677" />
      </g>
    </g>
    <g
       transform="matrix(0.26458334,0,0,0.26458334,43.327588,0.22175719)"
       id="g796"
       style="fill:none">
      <g
         opacity="0.5"
         id="g771">
        <path
           d="m 34.0867,17.312 c -0.1716,0 -0.3435,-0.0658 -0.4743,-0.1968 l -6.8014,-6.801 c -0.2617,-0.262 -0.2617,-0.68669 0,-0.94872 0.2621,-0.26188 0.6869,-0.26188 0.9489,0 l 6.8004,6.80062 c 0.262,0.2619 0.262,0.6866 0,0.9486 -0.13,0.131 -0.3,0.197 -0.4734,0.197"
           fill="#48494d"
           id="path743" />
        <path
           d="m 32.4739,18.9248 c -0.1715,0 -0.3434,-0.0656 -0.4743,-0.1966 L 25.199,11.9275 c -0.2621,-0.2621 -0.2621,-0.6867 0,-0.9487 0.262,-0.2621 0.6868,-0.2621 0.9489,0 l 6.8003,6.8006 c 0.2621,0.2621 0.2621,0.6867 0,0.9488 -0.131,0.131 -0.3027,0.1966 -0.4743,0.1966"
           fill="#48494d"
           id="path745" />
        <path
           d="m 30.9287,20.4701 c -0.1718,0 -0.3434,-0.0655 -0.4746,-0.1967 l -6.8003,-6.8006 c -0.262,-0.2621 -0.262,-0.6867 0,-0.9488 0.2621,-0.2618 0.6865,-0.2618 0.9486,0 l 6.8006,6.8007 c 0.2621,0.2621 0.2621,0.6868 0,0.9486 -0.1313,0.1313 -0.3026,0.1966 -0.4743,0.1966"
           fill="#48494d"
           id="path747" />
        <path
           d="m 22.5467,18.2564 c -0.1719,0 -0.3434,-0.0658 -0.4743,-0.1968 -0.2621,-0.2619 -0.2621,-0.6865 0,-0.9486 L 24.95,14.2333 c 0.262,-0.2619 0.6865,-0.2619 0.9486,0 0.262,0.262 0.262,0.6867 0,0.9487 l -2.878,2.8777 c -0.1307,0.131 -0.3027,0.1966 -0.474,0.1966"
           fill="#48494d"
           id="path749" />
        <path
           d="m 26.3415,22.0514 c -0.1719,0 -0.3434,-0.0654 -0.4743,-0.1966 -0.2621,-0.2621 -0.2621,-0.6866 0,-0.9486 l 2.8776,-2.8778 c 0.262,-0.2618 0.6868,-0.2618 0.9489,0 0.262,0.2621 0.262,0.6867 0,0.9488 l -2.8779,2.8776 c -0.1307,0.1313 -0.3027,0.1966 -0.4744,0.1966"
           fill="#48494d"
           id="path751" />
        <path
           d="m 32.1685,13.6347 c -0.5179,0.5181 -1.3577,0.5181 -1.8757,0 -0.5182,-0.5181 -0.5182,-1.3577 0,-1.8757 0.5179,-0.518 1.3578,-0.518 1.8757,0 0.518,0.518 0.518,1.3577 0,1.8757 z"
           fill="#48494d"
           id="path753" />
        <path
           d="m 5.91303,17.3044 c -0.17171,0 -0.34343,-0.0658 -0.47443,-0.1968 -0.26188,-0.2619 -0.26188,-0.6865 0,-0.9485 l 6.8007,-6.8007 c 0.2622,-0.26205 0.687,-0.26205 0.9489,0 0.262,0.26188 0.262,0.6865 0,0.9486 l -6.80104,6.8006 c -0.131,0.1307 -0.30266,0.1967 -0.47433,0.1967"
           fill="#48494d"
           id="path755" />
        <path
           d="m 7.52606,18.9171 c -0.17172,0 -0.34327,-0.0658 -0.4743,-0.1968 -0.26205,-0.2619 -0.26205,-0.6867 0,-0.9486 l 6.80064,-6.8006 c 0.2621,-0.2619 0.6867,-0.2619 0.9488,0 0.2618,0.262 0.2618,0.6867 0,0.9487 l -6.80071,6.8007 c -0.131,0.131 -0.30267,0.1966 -0.47433,0.1966"
           fill="#48494d"
           id="path757" />
        <path
           d="m 9.07135,20.4627 c -0.17155,0 -0.34327,-0.0657 -0.4743,-0.1966 -0.26205,-0.262 -0.26205,-0.6867 0,-0.9487 l 6.80065,-6.8007 c 0.2621,-0.262 0.6867,-0.262 0.9487,0 0.2621,0.2621 0.2621,0.6867 0,0.9486 L 9.54611,20.266 c -0.131,0.1306 -0.303,0.1966 -0.47466,0.1966"
           fill="#48494d"
           id="path759" />
        <path
           d="m 13.6583,22.0441 c -0.1717,0 -0.3435,-0.0658 -0.4745,-0.1966 l -2.8779,-2.8778 c -0.262,-0.2619 -0.262,-0.6867 0,-0.9486 0.2624,-0.262 0.687,-0.262 0.9491,0 l 2.8776,2.8778 c 0.262,0.2617 0.262,0.6868 0,0.9486 -0.131,0.131 -0.3027,0.1966 -0.4744,0.1966"
           fill="#48494d"
           id="path761" />
        <path
           d="m 17.4537,18.2488 c -0.1717,0 -0.3434,-0.0656 -0.4744,-0.1966 l -2.878,-2.8778 c -0.262,-0.2619 -0.262,-0.6867 0,-0.9486 0.2624,-0.262 0.687,-0.262 0.9491,0 l 2.8776,2.8776 c 0.262,0.2621 0.262,0.6867 0,0.9488 -0.131,0.131 -0.303,0.1966 -0.4743,0.1966"
           fill="#48494d"
           id="path763" />
        <path
           d="m 9.7077,11.7514 c 0.5179,0.5179 0.5179,1.3576 0,1.8757 -0.51807,0.5179 -1.35774,0.5179 -1.87567,0 -0.51807,-0.5181 -0.51807,-1.3578 0,-1.8757 0.51767,-0.518 1.35733,-0.518 1.87567,0 z"
           fill="#48494d"
           id="path765" />
        <path
           d="m 20.0041,31.418 c -1.9201,0 -3.8403,-0.7308 -5.302,-2.1927 -2.9233,-2.9235 -2.9233,-7.6803 0,-10.604 2.9237,-2.924 7.6807,-2.924 10.604,0 2.9239,2.9235 2.9239,7.6804 0,10.604 -1.462,1.462 -3.382,2.1927 -5.302,2.1927 z m 0,-13.648 c -1.5768,0 -3.1531,0.5999 -4.353,1.8003 -2.4004,2.4002 -2.4004,6.306 0,8.7063 2.4003,2.4004 6.3057,2.4004 8.7064,0 2.4004,-2.4 2.4004,-6.306 0,-8.7063 C 23.1575,18.37 21.5801,17.77 20.0041,17.77 Z m 4.8274,10.981 h 0.0013 -0.0014 z"
           fill="#48494d"
           id="path767" />
        <path
           d="m 12.0903,26.5423 h -1.2697 c -0.92613,0 -1.67973,-0.7532 -1.67973,-1.6797 v -1.8951 c 0,-0.9261 0.75357,-1.6794 1.67973,-1.6794 h 1.2697 c 0.9262,0 1.6795,0.7533 1.6795,1.6794 v 1.8951 c 0,0.9264 -0.7533,1.6797 -1.6797,1.6797 z m -1.2698,-3.9127 c -0.1831,0 -0.3378,0.1546 -0.3378,0.3379 v 1.8952 c 0,0.1833 0.1547,0.3376 0.3378,0.3376 h 1.2697 c 0.1832,0 0.3379,-0.1543 0.3379,-0.3376 v -1.8952 c 0,-0.1832 -0.1547,-0.3379 -0.3379,-0.3379 z"
           fill="#48494d"
           id="path769" />
      </g>
    </g>
    <g
       transform="matrix(0.26458334,0,0,0.26458334,13.249579,0.26458331)"
       id="g847"
       style="fill:none">
      <path
         style="opacity:0.5"
         id="path833"
         fill="#48494d"
         d="m 28.7616,10.4801 c 0.6752,0 1.363,0.0492 2.0274,0.0974 0.6457,0.0462 1.3126,0.0946 1.949,0.0946 0.2364,0 0.4531,-0.0063 0.6629,-0.0197 0.0036,-3e-4 0.0072,-3e-4 0.0105,-3e-4 0.0694,0 0.1338,0.0363 0.168,0.0973 0.036,0.0639 0.0331,0.1427 -0.0086,0.2033 -0.415,0.6081 -0.3722,1.9995 -0.3265,3.4727 0.0609,1.9664 0.1235,3.9999 -0.8152,4.9715 -0.353,0.3654 -0.8267,0.5503 -1.4076,0.5503 -0.5604,0 -0.8944,-0.9024 -1.2806,-1.9468 -0.3484,-0.9405 -0.7813,-2.1111 -1.2917,-2.1111 -1.7211,0 -2.3355,3.0312 -0.92,5.5326 l 3.0834,5.28 c 0.3214,0.5501 0.1368,1.2606 -0.4113,1.5831 -0.1768,0.1041 -0.378,0.1593 -0.5817,0.1593 -0.3412,0 -0.6618,-0.1495 -0.8818,-0.4096 L 24.195,23.1678 c -1.6199,-0.3286 -3.1485,-0.4955 -4.5446,-0.4955 -1.5741,0 -3.3244,0.2102 -5.2044,0.6249 l -4.4359,4.7374 C 9.79,28.295 9.47004,28.4442 9.12953,28.4442 8.85942,28.4442 8.59668,28.3478 8.38918,28.1733 7.95639,27.8089 7.84947,27.1902 8.13562,26.7018 l 2.91048,-4.9841 c 0.2145,-2.7968 -0.0358,-3.7063 -0.2845,-3.9759 -0.0745,-0.0806 -0.1413,-0.0901 -0.1852,-0.0901 -0.2561,0 -0.4745,0.0968 -0.66818,0.2951 -0.69985,0.7192 -0.8521,2.5963 -0.83143,3.6116 0.00108,0.009 0.0018,0.0188 0.0018,0.0285 0,0.1062 -0.08548,0.1926 -0.19165,0.1926 H 8.8855 c -0.00432,0 -0.00846,-4e-4 -0.01278,-4e-4 C 8.67801,21.7654 8.49156,21.7578 8.3109,21.7502 7.54283,21.7184 6.93619,21.6931 6.61189,21.2792 6.38821,20.9935 6.34178,20.5677 6.46703,19.9396 6.47224,19.9089 6.4789,19.8673 6.48628,19.8208 6.55881,19.364 6.70925,18.4146 7.23006,17.5724 7.88458,16.5139 8.8963,15.9758 10.2334,15.9758 c 0.1076,0 0.217,0.0034 0.3284,0.0104 0.4359,0.0269 0.7897,0.2185 1.1015,0.3872 0.2927,0.1586 0.5694,0.3088 0.8768,0.3088 0.1441,0 0.2894,-0.0321 0.443,-0.0977 1.0684,-0.4541 2.2788,-0.6748 3.6992,-0.6748 0.5818,0 1.2077,0.0365 1.9139,0.1116 0.2071,0.0218 0.4076,0.0332 0.596,0.0332 h 7e-4 c 1.8086,-4e-4 2.5396,-1.0267 3.3869,-2.2157 0.6518,-0.915 1.3903,-1.9513 2.7271,-2.6419 0.9479,-0.4893 2.0454,-0.7175 3.4548,-0.7175 z M 28.7617,9 c -1.6524,0 -2.9643,0.27992 -4.1293,0.88092 -1.6549,0.85508 -2.5403,2.09828 -3.2518,3.09718 -0.8451,1.1861 -1.1881,1.5962 -2.188,1.5966 -0.1367,0 -0.2848,-0.0085 -0.4409,-0.0251 -0.7592,-0.0806 -1.4358,-0.1197 -2.0693,-0.1197 -1.5642,0 -2.9202,0.241 -4.14,0.7362 -0.0568,-0.0289 -0.1227,-0.0646 -0.1778,-0.0942 -0.3806,-0.2061 -0.9523,-0.5153 -1.711,-0.5626 -0.1391,-0.0088 -0.2806,-0.0134 -0.4202,-0.0134 -1.85575,0 -3.32743,0.7941 -4.25608,2.2965 -0.67663,1.0944 -0.86595,2.2857 -0.94674,2.7946 L 5.02104,19.6466 5.01618,19.677 c -0.08332,0.4197 -0.29441,1.5823 0.43678,2.516 0.74448,0.9502 1.88291,0.9972 2.79781,1.0348 0.0655,0.0029 0.13191,0.0058 0.19939,0.0087 l -1.58633,2.7168 c -0.65127,1.1121 -0.40832,2.5229 0.57819,3.3532 0.47219,0.3973 1.07146,0.6166 1.68765,0.6166 0.75889,0 1.47603,-0.3269 1.97503,-0.8979 l 4.0995,-4.378 c 1.6081,-0.3294 3.1017,-0.4962 4.4466,-0.4962 1.167,0 2.4418,0.1267 3.795,0.3778 l 4.1967,4.4948 c 0.4992,0.5718 1.2169,0.8993 1.9774,0.8993 0.4657,0 0.925,-0.1253 1.3274,-0.3626 1.2492,-0.7346 1.67,-2.3527 0.9375,-3.6071 l -3.0785,-5.2705 c -0.5334,-0.9463 -0.6345,-1.8622 -0.5712,-2.4986 0.0461,0.1217 0.0878,0.2354 0.1235,0.3306 0.5046,1.3647 1.0765,2.9114 2.6626,2.9114 0.9808,0 1.8338,-0.3457 2.4658,-0.9998 1.3731,-1.4213 1.3004,-3.7725 1.2306,-6.0464 -0.0259,-0.8395 -0.0695,-2.2353 0.0885,-2.6204 0.338,-0.5155 0.3621,-1.195 0.0569,-1.7375 -0.2937,-0.52405 -0.8501,-0.85 -1.4519,-0.85 -0.0313,0 -0.0677,0.00145 -0.1019,0.00343 -0.1789,0.01102 -0.3657,0.01662 -0.5715,0.01662 -0.5777,0 -1.2119,-0.04551 -1.8255,-0.08958 C 30.241,9.05402 29.4984,9.00002 28.7631,9.00002" />
    </g>
  </g>
</svg>
